<svg width="65" height="64" viewBox="0 0 65 64" fill="none" xmlns="http://www.w3.org/2000/svg">
<path d="M52.4756 29.1306C52.7098 30.4523 52.8266 31.7915 52.8246 33.133C52.8246 39.1242 50.6399 44.1898 46.8381 47.6187H46.8431C43.5183 50.629 38.9481 52.3717 33.529 52.3717C28.2011 52.3717 23.0913 50.2971 19.3239 46.6042C15.5565 42.9113 13.4399 37.9026 13.4399 32.6801C13.4399 27.4575 15.5565 22.4488 19.3239 18.7559C23.0913 15.063 28.2011 12.9884 33.529 12.9884C38.516 12.9311 43.3321 14.7676 46.9686 18.1131L41.2332 23.7351C39.1599 21.7979 36.393 20.737 33.529 20.7813C28.2883 20.7813 23.836 24.2471 22.249 28.914C21.4075 31.3595 21.4075 34.008 22.249 36.4535H22.2565C23.8511 41.113 28.2958 44.5788 33.5366 44.5788C36.2436 44.5788 38.5689 43.8994 40.3719 42.6982H40.3643C41.4113 42.0184 42.3068 41.1376 42.9969 40.1092C43.687 39.0808 44.1574 37.9259 44.3796 36.7144H33.529V29.1331L52.4756 29.1306Z" fill="#333333"/>
</svg>
