<svg width="65" height="64" viewBox="0 0 65 64" fill="none" xmlns="http://www.w3.org/2000/svg">
<path d="M32.6166 25.3369C30.8174 25.3369 29.0919 26.0516 27.8197 27.3239C26.5475 28.5961 25.8328 30.3216 25.8328 32.1208C25.8328 33.92 26.5475 35.6454 27.8197 36.9177C29.0919 38.1899 30.8174 38.9046 32.6166 38.9046C34.4158 38.9046 36.1413 38.1899 37.4135 36.9177C38.6857 35.6454 39.4005 33.92 39.4005 32.1208C39.4005 30.3216 38.6857 28.5961 37.4135 27.3239C36.1413 26.0516 34.4158 25.3369 32.6166 25.3369Z" fill="#333333"/>
<path fill-rule="evenodd" clip-rule="evenodd" d="M21.7099 13.5456C28.9655 12.7413 36.2878 12.7413 43.5435 13.5456C47.5073 13.9881 50.703 17.1087 51.1685 21.0871C52.0289 28.4443 52.0289 35.8766 51.1685 43.2338C50.703 47.2122 47.5073 50.3328 43.5456 50.7774C36.2892 51.5819 28.9662 51.5819 21.7099 50.7774C17.7461 50.3328 14.5503 47.2122 14.0849 43.2359C13.2243 35.878 13.2243 28.445 14.0849 21.0871C14.5503 17.1087 17.7461 13.9881 21.7099 13.5456ZM43.0634 19.6364C42.5098 19.6364 41.9789 19.8563 41.5874 20.2478C41.196 20.6392 40.976 21.1702 40.976 21.7238C40.976 22.2774 41.196 22.8083 41.5874 23.1997C41.9789 23.5912 42.5098 23.8111 43.0634 23.8111C43.617 23.8111 44.1479 23.5912 44.5393 23.1997C44.9308 22.8083 45.1507 22.2774 45.1507 21.7238C45.1507 21.1702 44.9308 20.6392 44.5393 20.2478C44.1479 19.8563 43.617 19.6364 43.0634 19.6364ZM22.7118 32.1605C22.7118 29.5309 23.7564 27.009 25.6158 25.1496C27.4752 23.2902 29.9971 22.2456 32.6267 22.2456C35.2563 22.2456 37.7782 23.2902 39.6375 25.1496C41.4969 27.009 42.5415 29.5309 42.5415 32.1605C42.5415 34.79 41.4969 37.3119 39.6375 39.1713C37.7782 41.0307 35.2563 42.0753 32.6267 42.0753C29.9971 42.0753 27.4752 41.0307 25.6158 39.1713C23.7564 37.3119 22.7118 34.79 22.7118 32.1605Z" fill="#333333"/>
</svg>
