<svg width="37" height="38" viewBox="0 0 37 38" fill="none" xmlns="http://www.w3.org/2000/svg">
<path d="M18.5015 0.5C14.8423 0.5 11.2652 1.58009 8.22264 3.60371C5.18011 5.62731 2.80868 8.50353 1.40835 11.8687C0.00801563 15.2338 -0.358374 18.9367 0.355509 22.5091C1.0694 26.0816 2.83151 29.363 5.41897 31.9384C8.00645 34.514 11.3032 36.268 14.8921 36.9788C18.481 37.6893 22.201 37.3246 25.5818 35.9309C28.9626 34.5368 31.8518 32.1763 33.885 29.1478C35.918 26.1193 37.003 22.5587 37.003 18.9163C37.003 14.032 35.0538 9.34771 31.5841 5.89401C28.1143 2.44028 23.4085 0.5 18.5015 0.5ZM29.8666 21.6077C29.8666 21.976 28.1962 22.0286 28.1962 22.397C28.1962 22.7653 29.8483 23.2651 29.8483 23.773C29.8483 24.3938 26.4439 24.4858 26.4439 25.1068C26.4439 25.7699 29.0261 25.5645 29.0261 26.2828C29.0261 27.13 22.5402 26.7353 22.5402 27.6167C22.5402 27.9533 23.3702 28.0929 24.4089 28.2034C24.9798 28.2664 24.8554 28.5453 24.5305 28.7296C22.7147 29.8323 20.6287 30.4159 18.5015 30.4159C16.3744 30.4159 14.2884 29.8323 12.4726 28.7296C12.1502 28.5323 12.0233 28.2534 12.5942 28.2034C13.633 28.0929 14.4656 27.9403 14.4656 27.6167C14.4656 26.7353 7.97679 27.13 7.97679 26.2828C7.97679 25.5645 10.5617 25.7566 10.5617 25.1068C10.5617 24.4858 7.15484 24.3938 7.15484 23.773C7.15484 23.2651 8.80942 22.7732 8.80942 22.397C8.80942 22.0207 7.13633 21.9786 7.13633 21.6077C7.13633 21.2367 8.35745 20.9973 8.35745 20.7342C8.35745 20.237 6.93808 21.142 6.93808 18.9163C6.93808 15.8636 8.15642 12.9359 10.325 10.7774C12.4936 8.61878 15.4347 16.3228 18.5015 16.3228C21.5683 16.3228 24.5096 8.61878 26.6782 10.7774C28.8467 12.9359 30.0649 15.8636 30.0649 18.9163C30.0649 21.142 28.6457 20.2317 28.6457 20.7342C28.6457 20.9973 29.8666 21.2104 29.8666 21.6077Z" fill="url(#paint0_linear_2006_161)"/>
<defs>
<linearGradient id="paint0_linear_2006_161" x1="0" y1="0.5" x2="41.482" y2="6.5322" gradientUnits="userSpaceOnUse">
<stop stop-color="#6DDCFF"/>
<stop offset="1" stop-color="#7F60F9"/>
</linearGradient>
</defs>
</svg>
