<svg width="45" height="46" viewBox="0 0 45 46" fill="none" xmlns="http://www.w3.org/2000/svg">
<path d="M12.6287 36.4933C11.93 36.4933 11.2397 36.3729 10.5576 36.1322C9.87547 35.8914 9.27184 35.5575 8.74669 35.1303C9.33321 34.7444 9.8318 34.2263 10.2425 33.5761C10.6532 32.9258 10.8585 32.1281 10.8585 31.1828C10.8585 30.1833 11.199 29.343 11.8799 28.6621C12.5608 27.9823 13.4005 27.6425 14.3988 27.6425C15.3972 27.6425 16.2369 27.9823 16.9178 28.6621C17.5987 29.3418 17.9392 30.1821 17.9392 31.1828C17.9392 32.6426 17.4187 33.8923 16.3779 34.932C15.337 35.9717 14.0873 36.4933 12.6287 36.4933ZM12.6287 34.7214C13.6023 34.7214 14.4354 34.375 15.1281 33.6823C15.8209 32.9896 16.1678 32.1564 16.169 31.1828C16.169 30.6813 15.9991 30.2605 15.6592 29.9207C15.3193 29.5808 14.8992 29.4109 14.3988 29.4109C13.8985 29.4109 13.4778 29.5808 13.1367 29.9207C12.7957 30.2605 12.6263 30.6813 12.6287 31.1828C12.6287 31.8614 12.5472 32.4809 12.3844 33.0415C12.2215 33.602 12.0079 34.1331 11.7436 34.6346C11.8911 34.6936 12.0386 34.7231 12.1861 34.7231L12.6287 34.7214ZM21.2405 27.4371L18.2118 24.4084L32.6917 9.92665C33.0163 9.60212 33.4222 9.43219 33.9096 9.41685C34.397 9.4015 34.8171 9.57144 35.17 9.92665L35.7223 10.4772C36.0763 10.8312 36.2533 11.2442 36.2533 11.7163C36.2533 12.1883 36.0763 12.6014 35.7223 12.9554L21.2405 27.4371Z" fill="url(#paint0_linear_2111_199)"/>
<defs>
<linearGradient id="paint0_linear_2111_199" x1="8.74669" y1="22.9546" x2="36.2533" y2="22.9546" gradientUnits="userSpaceOnUse">
<stop stop-color="#690DFF"/>
<stop offset="1" stop-color="#FF00F5"/>
</linearGradient>
</defs>
</svg>
