<svg width="45" height="46" viewBox="0 0 45 46" fill="none" xmlns="http://www.w3.org/2000/svg">
<path d="M21.8165 9.74182L26.0707 16.81L34.1074 18.6715L28.6992 24.8993L29.4125 33.1192L21.8165 29.9L14.2217 33.1181L14.935 24.9005L9.52795 18.6715L17.5646 16.81L21.8165 9.74182ZM21.8165 14.1838L19.0254 18.8203L13.7512 20.043L17.3002 24.1323L16.8308 29.5256L21.8165 27.4134L26.8023 29.5256L26.334 24.1323L29.883 20.043L24.6088 18.8215L21.8165 14.1838ZM32.6386 25.7133L35.472 28.5468L33.8533 30.1656L31.0198 27.3332L32.6386 25.7133ZM23.1411 32.7151L25.9734 35.5485L24.3546 37.1673L21.5212 34.3339L23.1411 32.7151ZM30.6718 32.7151L33.5041 35.5485L31.8853 37.1673L29.0519 34.3339L30.6718 32.7151Z" fill="white"/>
<path d="M21.8165 9.74182L26.0707 16.81L34.1074 18.6715L28.6992 24.8993L29.4125 33.1192L21.8165 29.9L14.2217 33.1181L14.935 24.9005L9.52795 18.6715L17.5646 16.81L21.8165 9.74182ZM21.8165 14.1838L19.0254 18.8203L13.7512 20.043L17.3002 24.1323L16.8308 29.5256L21.8165 27.4134L26.8023 29.5256L26.334 24.1323L29.883 20.043L24.6088 18.8215L21.8165 14.1838ZM32.6386 25.7133L35.472 28.5468L33.8533 30.1656L31.0198 27.3332L32.6386 25.7133ZM23.1411 32.7151L25.9734 35.5485L24.3546 37.1673L21.5212 34.3339L23.1411 32.7151ZM30.6718 32.7151L33.5041 35.5485L31.8853 37.1673L29.0519 34.3339L30.6718 32.7151Z" fill="url(#paint0_linear_2111_263)"/>
<defs>
<linearGradient id="paint0_linear_2111_263" x1="9.52795" y1="23.4546" x2="35.472" y2="23.4546" gradientUnits="userSpaceOnUse">
<stop stop-color="#690DFF"/>
<stop offset="1" stop-color="#FF00F5"/>
</linearGradient>
</defs>
</svg>
