<svg width="45" height="46" viewBox="0 0 45 46" fill="none" xmlns="http://www.w3.org/2000/svg">
<path d="M11.4918 22.9546C11.4918 17.7657 11.4918 15.1705 13.1045 13.5592C14.7172 11.9479 17.311 11.9465 22.4999 11.9465C27.6888 11.9465 30.284 11.9465 31.8953 13.5592C33.5066 15.1719 33.508 17.7657 33.508 22.9546C33.508 28.1436 33.508 30.7387 31.8953 32.3501C30.2826 33.9614 27.6888 33.9627 22.4999 33.9627C17.311 33.9627 14.7158 33.9627 13.1045 32.3501C11.4932 30.7374 11.4918 28.1436 11.4918 22.9546Z" stroke="url(#paint0_linear_2111_169)" stroke-width="1.5" stroke-linecap="round" stroke-linejoin="round"/>
<path d="M16.3079 27.0826L18.8426 19.4788C18.9062 19.289 19.0278 19.124 19.1903 19.0072C19.3527 18.8903 19.5478 18.8274 19.748 18.8274C19.9481 18.8274 20.1432 18.8903 20.3057 19.0072C20.4681 19.124 20.5898 19.289 20.6534 19.4788L23.188 27.0826M17.684 24.3306H21.812M27.316 18.8266V27.0826M16.9959 9.19446V11.9465M28.0041 9.19446V11.9465M22.5 9.19446V11.9465M16.9959 33.9627V36.7147M22.5 33.9627V36.7147M28.0041 33.9627V36.7147M36.2601 28.4586H33.5081M11.4919 17.4505H8.73987M11.4919 28.4586H8.73987M11.4919 22.9546H8.73987M36.2601 17.4505H33.5081M36.2601 22.9546H33.5081" stroke="url(#paint1_linear_2111_169)" stroke-width="1.5" stroke-linecap="round" stroke-linejoin="round"/>
<defs>
<linearGradient id="paint0_linear_2111_169" x1="11.4918" y1="22.9546" x2="33.508" y2="22.9546" gradientUnits="userSpaceOnUse">
<stop stop-color="#690DFF"/>
<stop offset="1" stop-color="#FF00F5"/>
</linearGradient>
<linearGradient id="paint1_linear_2111_169" x1="8.73987" y1="22.9546" x2="36.2601" y2="22.9546" gradientUnits="userSpaceOnUse">
<stop stop-color="#690DFF"/>
<stop offset="1" stop-color="#FF00F5"/>
</linearGradient>
</defs>
</svg>
