<svg width="45" height="46" viewBox="0 0 45 46" fill="none" xmlns="http://www.w3.org/2000/svg">
<path d="M28.5639 17.9463L28.5731 17.945C28.7761 17.9164 28.9821 17.9022 29.1908 17.9022L28.5639 17.9463ZM28.5639 17.9463L28.5547 17.9479M28.5639 17.9463L28.5547 17.9479M28.5547 17.9479C28.4956 17.9585 28.435 17.9571 28.3764 17.9437C28.3179 17.9303 28.2626 17.9053 28.2139 17.8701C28.1653 17.835 28.1242 17.7903 28.0931 17.7389L27.6652 17.9975M28.5547 17.9479L27.6652 17.9975M27.6652 17.9975L28.0931 17.7389C28.0621 17.6875 28.0417 17.6304 28.0332 17.571C28.0247 17.5115 28.0283 17.451 28.0437 17.3929C28.0591 17.3349 28.0861 17.2805 28.1229 17.2331L27.7283 16.9261L28.1229 17.2331C28.1598 17.1857 28.2059 17.1462 28.2583 17.117C28.3108 17.0878 28.3686 17.0695 28.4283 17.0631L28.4375 17.0621M27.6652 17.9975L28.4375 17.0621M28.4375 17.0621L28.4467 17.0608M28.4375 17.0621L28.4467 17.0608M28.4467 17.0608C29.593 16.895 30.7618 17.1152 31.7693 17.6865C32.7768 18.2579 33.5657 19.148 34.0118 20.2168C34.458 21.2856 34.5361 22.4725 34.2339 23.5905C33.9316 24.7086 33.2662 25.6945 32.3423 26.3929L31.668 26.9027M28.4467 17.0608L31.668 26.9027M31.668 26.9027L32.4394 27.2481M31.668 26.9027L32.4394 27.2481M32.4394 27.2481C33.8396 27.875 35.0284 28.8937 35.8624 30.1813C36.6965 31.4688 37.1402 32.9702 37.1399 34.5043V34.5044M32.4394 27.2481L37.1399 34.5044M37.1399 34.5044C37.1399 34.623 37.0928 34.7368 37.0089 34.8206M37.1399 34.5044L37.0089 34.8206M31.2213 27.7462L31.2217 27.7463C32.6744 28.183 33.9476 29.0763 34.8526 30.2936C35.7575 31.511 36.246 32.9876 36.2455 34.5044L31.2213 27.7462ZM31.2213 27.7462L30.9034 27.651M31.2213 27.7462L30.9034 27.651M37.0089 34.8206C36.9251 34.9045 36.8113 34.9516 36.6927 34.9516M37.0089 34.8206L36.6927 34.9516M36.6927 34.9516C36.5741 34.9516 36.4604 34.9045 36.3765 34.8206M36.6927 34.9516L36.3765 34.8206M36.3765 34.8206C36.2927 34.7368 36.2456 34.6231 36.2455 34.5046L36.3765 34.8206ZM30.9034 27.651V26.2128L31.1471 26.0885C31.1473 26.0885 31.1474 26.0884 31.1476 26.0883C32.0152 25.6487 32.7094 24.9295 33.1181 24.0469C33.5269 23.1642 33.6262 22.1694 33.4001 21.2232C33.174 20.277 32.6357 19.4347 31.8719 18.8321C31.1082 18.2296 30.1637 17.902 29.191 17.9022L30.9034 27.651ZM22.3499 23.7314L21.5458 24.2791L22.4592 24.6141C24.4967 25.3614 26.2639 26.7013 27.5334 28.4615C28.8005 30.2182 29.514 32.3133 29.5824 34.4781C29.5789 34.5906 29.5331 34.6978 29.4541 34.7782C29.3731 34.8607 29.2633 34.9088 29.1476 34.9122C29.032 34.9157 28.9195 34.8743 28.8337 34.7968C28.7499 34.7212 28.6978 34.6168 28.6876 34.5045C28.6053 31.9183 27.521 29.4652 25.6634 27.6635C23.8028 25.8589 21.3127 24.8496 18.7207 24.8496C16.1288 24.8496 13.6386 25.8589 11.7781 27.6635C9.91895 29.4666 8.83438 31.9223 8.75367 34.5108C8.74672 34.626 8.69546 34.7341 8.61054 34.8125C8.52461 34.8918 8.41104 34.9343 8.29418 34.9308C8.17731 34.9274 8.06643 34.8783 7.9853 34.7941C7.90525 34.7111 7.86044 34.6004 7.86011 34.4851C7.92723 32.3181 8.64071 30.2205 9.90896 28.462C11.1785 26.7016 12.9459 25.3615 14.9835 24.6141L15.8969 24.2791L15.0928 23.7314C14.2244 23.14 13.5138 22.3453 13.0227 21.4165C12.5317 20.4877 12.2751 19.4529 12.2753 18.4023C12.2755 17.2911 12.563 16.1989 13.1098 15.2316C13.6566 14.2643 14.4442 13.4547 15.3961 12.8815C16.348 12.3083 17.4319 11.9909 18.5426 11.9601C19.6534 11.9292 20.7532 12.1861 21.7354 12.7056C22.7176 13.2252 23.5489 13.9898 24.1484 14.9254C24.748 15.8609 25.0956 16.9355 25.1574 18.0449C25.2193 19.1544 24.9933 20.261 24.5013 21.2573C24.0094 22.2537 23.2683 23.1059 22.3499 23.7314ZM18.7214 12.8505C17.249 12.8505 15.8369 13.4354 14.7957 14.4766C13.7546 15.5177 13.1697 16.9298 13.1697 18.4022C13.1697 19.8746 13.7546 21.2867 14.7957 22.3278C15.8369 23.369 17.249 23.9539 18.7214 23.9539C20.1938 23.9539 21.6058 23.369 22.647 22.3278C23.6881 21.2867 24.273 19.8746 24.273 18.4022C24.273 16.9298 23.6881 15.5177 22.647 14.4766C21.6058 13.4354 20.1938 12.8505 18.7214 12.8505Z" stroke="url(#paint0_linear_2111_14)"/>
<defs>
<linearGradient id="paint0_linear_2111_14" x1="7.36011" y1="23.4546" x2="37.6399" y2="23.4546" gradientUnits="userSpaceOnUse">
<stop stop-color="#690DFF"/>
<stop offset="1" stop-color="#FF00F5"/>
</linearGradient>
</defs>
</svg>
