<svg width="45" height="46" viewBox="0 0 45 46" fill="none" xmlns="http://www.w3.org/2000/svg">
<mask id="path-1-outside-1_2111_279" maskUnits="userSpaceOnUse" x="5.34473" y="7.27972" width="34" height="31" fill="black">
<rect fill="white" x="5.34473" y="7.27972" width="34" height="31"/>
<path fill-rule="evenodd" clip-rule="evenodd" d="M22.7158 8.54167C21.9995 9.0234 21.9371 9.30254 21.9309 12.0478C21.9274 13.5712 21.975 14.6637 22.0564 14.9355C22.2288 15.5108 22.7275 15.9747 23.2676 16.0619L23.7015 16.132L23.7588 16.8375C23.8287 17.6991 24.1593 18.1343 24.7435 18.1343C25.3086 18.1343 25.3859 18.0792 26.2788 17.0391L27.1092 16.0717L29.5305 16.0713C33.1479 16.0707 33.0404 16.1896 33.0404 12.1842C33.0404 9.12607 33.0042 8.95797 32.247 8.49744C31.9118 8.29359 31.6099 8.27972 27.4971 8.27972C23.1122 8.27972 23.1045 8.28018 22.7158 8.54167ZM31.8681 12.1041C31.8897 13.9412 31.8598 14.7723 31.7682 14.8829C31.6647 15.0074 31.1322 15.0404 29.2234 15.0404C26.4484 15.0404 26.5512 15.0082 25.5416 16.1947C25.2301 16.5607 24.9337 16.8344 24.8827 16.8029C24.8318 16.7715 24.7901 16.4956 24.7901 16.1898C24.7901 15.7095 24.742 15.5933 24.4375 15.3371C24.2178 15.1523 23.9458 15.0404 23.7156 15.0404C23.5124 15.0404 23.2844 14.9786 23.2088 14.9029C23.0631 14.7573 23.0022 9.96818 23.1414 9.60551C23.2041 9.44211 23.666 9.42607 27.5244 9.45288L31.8373 9.4829L31.8681 12.1041ZM25.8041 10.2274L25.4607 10.5708L25.4978 12.2431C25.5333 13.8405 25.5471 13.9251 25.8055 14.1342C26.2622 14.5035 26.6554 14.4068 28.058 13.5798C29.5136 12.7215 29.7418 12.4441 29.4905 11.8376C29.3343 11.4604 29.2601 11.405 27.7169 10.5141C27.1167 10.1676 26.518 9.88396 26.3865 9.88396C26.2551 9.88396 25.993 10.0385 25.8041 10.2274ZM27.6834 11.7666C27.9829 11.9406 28.2267 12.1167 28.2256 12.158C28.2235 12.2268 26.8154 13.0924 26.7053 13.0924C26.6249 13.0924 26.5049 11.3581 26.5773 11.2411C26.6174 11.1762 26.745 11.1966 26.892 11.2911C27.0279 11.3786 27.384 11.5926 27.6834 11.7666ZM17.3179 16.0645C16.4119 16.355 15.9668 17.0324 15.9668 18.1213C15.9668 18.6953 15.9061 18.9171 15.623 19.3771C15.434 19.6844 15.2793 19.9625 15.2793 19.9951C15.2793 20.1323 14.1243 21.9407 13.3941 22.947C12.9907 23.5029 11.4048 25.4294 10.9279 25.9427C10.8317 26.0463 10.1342 26.5029 9.37796 26.9575C7.50101 28.0857 7.11049 28.4253 6.67666 29.3064C6.33312 30.0044 6.31593 30.1007 6.36509 31.0509C6.42055 32.1223 6.61845 32.6311 7.2402 33.3016C7.96658 34.0848 9.31104 34.5887 10.3254 34.4579L10.8676 34.3879L11.5878 35.5714C12.4908 37.0553 12.5069 37.076 12.9896 37.3703C14.172 38.091 15.623 37.2255 15.623 35.7995C15.623 35.244 15.5492 35.0612 14.8679 33.9303C14.4525 33.241 14.1404 32.6049 14.1742 32.5169C14.264 32.2826 16.3952 31.7032 18.1922 31.4244C18.6283 31.3567 19.0174 31.2814 19.0568 31.2571C19.0962 31.2328 20.0876 31.1526 21.2601 31.0789L23.3919 30.9449L23.9229 31.2562C24.3879 31.5287 24.5465 31.5614 25.1989 31.52C25.8937 31.4757 25.9762 31.4403 26.4213 30.9951C26.8641 30.5523 26.902 30.4653 26.945 29.7883C26.9992 28.9378 26.9139 28.7349 25.6912 26.8048C25.2586 26.1219 24.9047 25.4869 24.9047 25.3934C24.9047 25.3 25.0266 25.0593 25.1757 24.8587C25.4641 24.4707 25.8214 23.5165 25.8214 23.1346C25.8214 23.0082 25.737 22.6042 25.634 22.2369C25.3933 21.3792 24.7649 20.6538 23.9134 20.251C23.3625 19.9904 23.1532 19.9538 22.3993 19.9856L21.5243 20.0226L20.4899 18.3148C19.7398 17.0762 19.3391 16.5297 19.0316 16.3255C18.5723 16.0207 17.8144 15.9053 17.3179 16.0645ZM18.5718 17.3608C18.703 17.5026 19.4007 18.5984 20.1221 19.7958C20.8434 20.9933 21.7359 22.4629 22.1052 23.0616C25.1421 27.9849 25.934 29.3382 25.9349 29.6062C25.9363 29.9994 25.4226 30.5099 25.0256 30.5099C24.4584 30.5099 24.7182 30.8729 21.3747 25.4107C17.344 18.8261 16.9981 18.2386 16.9981 17.9768C16.9981 17.8284 17.105 17.571 17.2356 17.405C17.5499 17.0053 18.2222 16.9832 18.5718 17.3608ZM28.5735 19.3777C28.3558 19.4945 28.073 19.7303 27.9449 19.9018C27.7249 20.1966 27.7121 20.3768 27.7121 23.1754V26.1371L27.9986 26.4436C28.5553 27.0394 28.7246 27.0722 31.2478 27.0722H33.5918L34.4777 28.0479C34.965 28.5847 35.4908 29.0556 35.6464 29.0947C36.0335 29.1919 36.6863 28.8609 36.8245 28.4977C36.886 28.3358 36.9364 27.9553 36.9364 27.6524V27.1015L37.3867 27.0295C37.673 26.9837 37.986 26.817 38.2461 26.5716L38.6553 26.1858V23.2335C38.6553 20.4735 38.6403 20.257 38.4243 19.9075C37.974 19.1789 37.8802 19.1656 33.1932 19.1656C29.3009 19.1656 28.938 19.1822 28.5735 19.3777ZM17.9984 21.973C18.6888 23.1074 20.035 25.3172 20.99 26.8836C21.945 28.45 22.6977 29.7778 22.6629 29.8342C22.6279 29.8907 22.177 29.9391 21.6608 29.9417C20.2742 29.9489 17.4748 30.3638 15.4233 30.866C14.9038 30.9932 14.4287 31.0663 14.3676 31.0286C14.3064 30.9908 13.682 30.0039 12.9798 28.8356L11.7032 26.7113L11.9251 26.462C12.0472 26.325 12.2887 26.0581 12.4619 25.869C13.4146 24.8286 15.032 22.5939 15.9037 21.1136C16.5629 19.9941 16.6694 19.8298 16.7079 19.8718C16.7273 19.893 17.308 20.8386 17.9984 21.973ZM37.4865 20.449C37.5851 20.5477 37.624 21.3057 37.624 23.1353C37.624 25.6393 37.6195 25.6873 37.3692 25.8625C37.2292 25.9606 36.9771 26.0409 36.809 26.0409C36.2438 26.0409 35.9702 26.3934 35.9056 27.2049L35.8479 27.9316L35.4468 27.4793C35.2262 27.2307 34.8458 26.8052 34.6015 26.534L34.1571 26.0409H31.6727C29.7637 26.0409 29.1391 26.0049 28.976 25.8856C28.7826 25.7444 28.7608 25.5117 28.7317 23.2788C28.7056 21.2802 28.7307 20.7795 28.8674 20.5693L29.0351 20.3115H33.192C36.2724 20.3115 37.3846 20.3471 37.4865 20.449ZM23.7736 21.4047C24.3647 21.784 24.725 22.5691 24.6395 23.2916C24.5796 23.7968 24.3639 24.3239 24.2182 24.3208C24.1861 24.3201 23.7319 23.6158 23.2088 22.7555C22.191 21.0816 22.1695 20.9378 22.9567 21.0703C23.1773 21.1074 23.5449 21.2579 23.7736 21.4047ZM30.5424 22.7408C30.3053 22.9778 30.3802 23.3991 30.6841 23.5375C31.1904 23.7682 31.5311 23.4551 31.3891 22.8895C31.334 22.6701 31.2429 22.6033 30.9986 22.6033C30.8233 22.6033 30.618 22.6651 30.5424 22.7408ZM32.7717 22.8128C32.5287 23.0813 32.5328 23.2106 32.7917 23.4449C33.1879 23.8036 33.728 23.6155 33.728 23.1189C33.728 22.6125 33.1271 22.4201 32.7717 22.8128ZM34.9897 22.83C34.8132 23.1597 34.9472 23.5052 35.2841 23.5898C35.674 23.6877 35.9245 23.4466 35.8824 23.0141C35.8527 22.7094 35.7976 22.6556 35.483 22.6253C35.2078 22.5986 35.0868 22.6489 34.9897 22.83ZM11.3022 28.1894C11.5771 28.6149 12.1524 29.5479 12.5805 30.2628C13.2356 31.3569 13.334 31.5866 13.2018 31.7142C12.85 32.0536 10.9539 33.1596 10.5265 33.2746C9.04291 33.6742 7.52392 32.5928 7.40017 31.0491C7.3525 30.4547 7.58821 29.7095 7.97586 29.2288C8.13147 29.0357 10.5666 27.4324 10.7204 27.4217C10.7655 27.4185 11.0273 27.764 11.3022 28.1894ZM13.8756 34.3609C14.2695 35.026 14.5917 35.6871 14.5917 35.8297C14.5917 36.2127 14.2239 36.4912 13.7753 36.4478C13.4263 36.4141 13.3348 36.3101 12.6347 35.1507L11.8736 33.8902L12.4592 33.5204C12.7812 33.317 13.0706 33.1508 13.1021 33.1511C13.1336 33.1513 13.4817 33.6958 13.8756 34.3609Z"/>
</mask>
<path fill-rule="evenodd" clip-rule="evenodd" d="M22.7158 8.54167C21.9995 9.0234 21.9371 9.30254 21.9309 12.0478C21.9274 13.5712 21.975 14.6637 22.0564 14.9355C22.2288 15.5108 22.7275 15.9747 23.2676 16.0619L23.7015 16.132L23.7588 16.8375C23.8287 17.6991 24.1593 18.1343 24.7435 18.1343C25.3086 18.1343 25.3859 18.0792 26.2788 17.0391L27.1092 16.0717L29.5305 16.0713C33.1479 16.0707 33.0404 16.1896 33.0404 12.1842C33.0404 9.12607 33.0042 8.95797 32.247 8.49744C31.9118 8.29359 31.6099 8.27972 27.4971 8.27972C23.1122 8.27972 23.1045 8.28018 22.7158 8.54167ZM31.8681 12.1041C31.8897 13.9412 31.8598 14.7723 31.7682 14.8829C31.6647 15.0074 31.1322 15.0404 29.2234 15.0404C26.4484 15.0404 26.5512 15.0082 25.5416 16.1947C25.2301 16.5607 24.9337 16.8344 24.8827 16.8029C24.8318 16.7715 24.7901 16.4956 24.7901 16.1898C24.7901 15.7095 24.742 15.5933 24.4375 15.3371C24.2178 15.1523 23.9458 15.0404 23.7156 15.0404C23.5124 15.0404 23.2844 14.9786 23.2088 14.9029C23.0631 14.7573 23.0022 9.96818 23.1414 9.60551C23.2041 9.44211 23.666 9.42607 27.5244 9.45288L31.8373 9.4829L31.8681 12.1041ZM25.8041 10.2274L25.4607 10.5708L25.4978 12.2431C25.5333 13.8405 25.5471 13.9251 25.8055 14.1342C26.2622 14.5035 26.6554 14.4068 28.058 13.5798C29.5136 12.7215 29.7418 12.4441 29.4905 11.8376C29.3343 11.4604 29.2601 11.405 27.7169 10.5141C27.1167 10.1676 26.518 9.88396 26.3865 9.88396C26.2551 9.88396 25.993 10.0385 25.8041 10.2274ZM27.6834 11.7666C27.9829 11.9406 28.2267 12.1167 28.2256 12.158C28.2235 12.2268 26.8154 13.0924 26.7053 13.0924C26.6249 13.0924 26.5049 11.3581 26.5773 11.2411C26.6174 11.1762 26.745 11.1966 26.892 11.2911C27.0279 11.3786 27.384 11.5926 27.6834 11.7666ZM17.3179 16.0645C16.4119 16.355 15.9668 17.0324 15.9668 18.1213C15.9668 18.6953 15.9061 18.9171 15.623 19.3771C15.434 19.6844 15.2793 19.9625 15.2793 19.9951C15.2793 20.1323 14.1243 21.9407 13.3941 22.947C12.9907 23.5029 11.4048 25.4294 10.9279 25.9427C10.8317 26.0463 10.1342 26.5029 9.37796 26.9575C7.50101 28.0857 7.11049 28.4253 6.67666 29.3064C6.33312 30.0044 6.31593 30.1007 6.36509 31.0509C6.42055 32.1223 6.61845 32.6311 7.2402 33.3016C7.96658 34.0848 9.31104 34.5887 10.3254 34.4579L10.8676 34.3879L11.5878 35.5714C12.4908 37.0553 12.5069 37.076 12.9896 37.3703C14.172 38.091 15.623 37.2255 15.623 35.7995C15.623 35.244 15.5492 35.0612 14.8679 33.9303C14.4525 33.241 14.1404 32.6049 14.1742 32.5169C14.264 32.2826 16.3952 31.7032 18.1922 31.4244C18.6283 31.3567 19.0174 31.2814 19.0568 31.2571C19.0962 31.2328 20.0876 31.1526 21.2601 31.0789L23.3919 30.9449L23.9229 31.2562C24.3879 31.5287 24.5465 31.5614 25.1989 31.52C25.8937 31.4757 25.9762 31.4403 26.4213 30.9951C26.8641 30.5523 26.902 30.4653 26.945 29.7883C26.9992 28.9378 26.9139 28.7349 25.6912 26.8048C25.2586 26.1219 24.9047 25.4869 24.9047 25.3934C24.9047 25.3 25.0266 25.0593 25.1757 24.8587C25.4641 24.4707 25.8214 23.5165 25.8214 23.1346C25.8214 23.0082 25.737 22.6042 25.634 22.2369C25.3933 21.3792 24.7649 20.6538 23.9134 20.251C23.3625 19.9904 23.1532 19.9538 22.3993 19.9856L21.5243 20.0226L20.4899 18.3148C19.7398 17.0762 19.3391 16.5297 19.0316 16.3255C18.5723 16.0207 17.8144 15.9053 17.3179 16.0645ZM18.5718 17.3608C18.703 17.5026 19.4007 18.5984 20.1221 19.7958C20.8434 20.9933 21.7359 22.4629 22.1052 23.0616C25.1421 27.9849 25.934 29.3382 25.9349 29.6062C25.9363 29.9994 25.4226 30.5099 25.0256 30.5099C24.4584 30.5099 24.7182 30.8729 21.3747 25.4107C17.344 18.8261 16.9981 18.2386 16.9981 17.9768C16.9981 17.8284 17.105 17.571 17.2356 17.405C17.5499 17.0053 18.2222 16.9832 18.5718 17.3608ZM28.5735 19.3777C28.3558 19.4945 28.073 19.7303 27.9449 19.9018C27.7249 20.1966 27.7121 20.3768 27.7121 23.1754V26.1371L27.9986 26.4436C28.5553 27.0394 28.7246 27.0722 31.2478 27.0722H33.5918L34.4777 28.0479C34.965 28.5847 35.4908 29.0556 35.6464 29.0947C36.0335 29.1919 36.6863 28.8609 36.8245 28.4977C36.886 28.3358 36.9364 27.9553 36.9364 27.6524V27.1015L37.3867 27.0295C37.673 26.9837 37.986 26.817 38.2461 26.5716L38.6553 26.1858V23.2335C38.6553 20.4735 38.6403 20.257 38.4243 19.9075C37.974 19.1789 37.8802 19.1656 33.1932 19.1656C29.3009 19.1656 28.938 19.1822 28.5735 19.3777ZM17.9984 21.973C18.6888 23.1074 20.035 25.3172 20.99 26.8836C21.945 28.45 22.6977 29.7778 22.6629 29.8342C22.6279 29.8907 22.177 29.9391 21.6608 29.9417C20.2742 29.9489 17.4748 30.3638 15.4233 30.866C14.9038 30.9932 14.4287 31.0663 14.3676 31.0286C14.3064 30.9908 13.682 30.0039 12.9798 28.8356L11.7032 26.7113L11.9251 26.462C12.0472 26.325 12.2887 26.0581 12.4619 25.869C13.4146 24.8286 15.032 22.5939 15.9037 21.1136C16.5629 19.9941 16.6694 19.8298 16.7079 19.8718C16.7273 19.893 17.308 20.8386 17.9984 21.973ZM37.4865 20.449C37.5851 20.5477 37.624 21.3057 37.624 23.1353C37.624 25.6393 37.6195 25.6873 37.3692 25.8625C37.2292 25.9606 36.9771 26.0409 36.809 26.0409C36.2438 26.0409 35.9702 26.3934 35.9056 27.2049L35.8479 27.9316L35.4468 27.4793C35.2262 27.2307 34.8458 26.8052 34.6015 26.534L34.1571 26.0409H31.6727C29.7637 26.0409 29.1391 26.0049 28.976 25.8856C28.7826 25.7444 28.7608 25.5117 28.7317 23.2788C28.7056 21.2802 28.7307 20.7795 28.8674 20.5693L29.0351 20.3115H33.192C36.2724 20.3115 37.3846 20.3471 37.4865 20.449ZM23.7736 21.4047C24.3647 21.784 24.725 22.5691 24.6395 23.2916C24.5796 23.7968 24.3639 24.3239 24.2182 24.3208C24.1861 24.3201 23.7319 23.6158 23.2088 22.7555C22.191 21.0816 22.1695 20.9378 22.9567 21.0703C23.1773 21.1074 23.5449 21.2579 23.7736 21.4047ZM30.5424 22.7408C30.3053 22.9778 30.3802 23.3991 30.6841 23.5375C31.1904 23.7682 31.5311 23.4551 31.3891 22.8895C31.334 22.6701 31.2429 22.6033 30.9986 22.6033C30.8233 22.6033 30.618 22.6651 30.5424 22.7408ZM32.7717 22.8128C32.5287 23.0813 32.5328 23.2106 32.7917 23.4449C33.1879 23.8036 33.728 23.6155 33.728 23.1189C33.728 22.6125 33.1271 22.4201 32.7717 22.8128ZM34.9897 22.83C34.8132 23.1597 34.9472 23.5052 35.2841 23.5898C35.674 23.6877 35.9245 23.4466 35.8824 23.0141C35.8527 22.7094 35.7976 22.6556 35.483 22.6253C35.2078 22.5986 35.0868 22.6489 34.9897 22.83ZM11.3022 28.1894C11.5771 28.6149 12.1524 29.5479 12.5805 30.2628C13.2356 31.3569 13.334 31.5866 13.2018 31.7142C12.85 32.0536 10.9539 33.1596 10.5265 33.2746C9.04291 33.6742 7.52392 32.5928 7.40017 31.0491C7.3525 30.4547 7.58821 29.7095 7.97586 29.2288C8.13147 29.0357 10.5666 27.4324 10.7204 27.4217C10.7655 27.4185 11.0273 27.764 11.3022 28.1894ZM13.8756 34.3609C14.2695 35.026 14.5917 35.6871 14.5917 35.8297C14.5917 36.2127 14.2239 36.4912 13.7753 36.4478C13.4263 36.4141 13.3348 36.3101 12.6347 35.1507L11.8736 33.8902L12.4592 33.5204C12.7812 33.317 13.0706 33.1508 13.1021 33.1511C13.1336 33.1513 13.4817 33.6958 13.8756 34.3609Z" fill="url(#paint0_linear_2111_279)"/>
<path fill-rule="evenodd" clip-rule="evenodd" d="M22.7158 8.54167C21.9995 9.0234 21.9371 9.30254 21.9309 12.0478C21.9274 13.5712 21.975 14.6637 22.0564 14.9355C22.2288 15.5108 22.7275 15.9747 23.2676 16.0619L23.7015 16.132L23.7588 16.8375C23.8287 17.6991 24.1593 18.1343 24.7435 18.1343C25.3086 18.1343 25.3859 18.0792 26.2788 17.0391L27.1092 16.0717L29.5305 16.0713C33.1479 16.0707 33.0404 16.1896 33.0404 12.1842C33.0404 9.12607 33.0042 8.95797 32.247 8.49744C31.9118 8.29359 31.6099 8.27972 27.4971 8.27972C23.1122 8.27972 23.1045 8.28018 22.7158 8.54167ZM31.8681 12.1041C31.8897 13.9412 31.8598 14.7723 31.7682 14.8829C31.6647 15.0074 31.1322 15.0404 29.2234 15.0404C26.4484 15.0404 26.5512 15.0082 25.5416 16.1947C25.2301 16.5607 24.9337 16.8344 24.8827 16.8029C24.8318 16.7715 24.7901 16.4956 24.7901 16.1898C24.7901 15.7095 24.742 15.5933 24.4375 15.3371C24.2178 15.1523 23.9458 15.0404 23.7156 15.0404C23.5124 15.0404 23.2844 14.9786 23.2088 14.9029C23.0631 14.7573 23.0022 9.96818 23.1414 9.60551C23.2041 9.44211 23.666 9.42607 27.5244 9.45288L31.8373 9.4829L31.8681 12.1041ZM25.8041 10.2274L25.4607 10.5708L25.4978 12.2431C25.5333 13.8405 25.5471 13.9251 25.8055 14.1342C26.2622 14.5035 26.6554 14.4068 28.058 13.5798C29.5136 12.7215 29.7418 12.4441 29.4905 11.8376C29.3343 11.4604 29.2601 11.405 27.7169 10.5141C27.1167 10.1676 26.518 9.88396 26.3865 9.88396C26.2551 9.88396 25.993 10.0385 25.8041 10.2274ZM27.6834 11.7666C27.9829 11.9406 28.2267 12.1167 28.2256 12.158C28.2235 12.2268 26.8154 13.0924 26.7053 13.0924C26.6249 13.0924 26.5049 11.3581 26.5773 11.2411C26.6174 11.1762 26.745 11.1966 26.892 11.2911C27.0279 11.3786 27.384 11.5926 27.6834 11.7666ZM17.3179 16.0645C16.4119 16.355 15.9668 17.0324 15.9668 18.1213C15.9668 18.6953 15.9061 18.9171 15.623 19.3771C15.434 19.6844 15.2793 19.9625 15.2793 19.9951C15.2793 20.1323 14.1243 21.9407 13.3941 22.947C12.9907 23.5029 11.4048 25.4294 10.9279 25.9427C10.8317 26.0463 10.1342 26.5029 9.37796 26.9575C7.50101 28.0857 7.11049 28.4253 6.67666 29.3064C6.33312 30.0044 6.31593 30.1007 6.36509 31.0509C6.42055 32.1223 6.61845 32.6311 7.2402 33.3016C7.96658 34.0848 9.31104 34.5887 10.3254 34.4579L10.8676 34.3879L11.5878 35.5714C12.4908 37.0553 12.5069 37.076 12.9896 37.3703C14.172 38.091 15.623 37.2255 15.623 35.7995C15.623 35.244 15.5492 35.0612 14.8679 33.9303C14.4525 33.241 14.1404 32.6049 14.1742 32.5169C14.264 32.2826 16.3952 31.7032 18.1922 31.4244C18.6283 31.3567 19.0174 31.2814 19.0568 31.2571C19.0962 31.2328 20.0876 31.1526 21.2601 31.0789L23.3919 30.9449L23.9229 31.2562C24.3879 31.5287 24.5465 31.5614 25.1989 31.52C25.8937 31.4757 25.9762 31.4403 26.4213 30.9951C26.8641 30.5523 26.902 30.4653 26.945 29.7883C26.9992 28.9378 26.9139 28.7349 25.6912 26.8048C25.2586 26.1219 24.9047 25.4869 24.9047 25.3934C24.9047 25.3 25.0266 25.0593 25.1757 24.8587C25.4641 24.4707 25.8214 23.5165 25.8214 23.1346C25.8214 23.0082 25.737 22.6042 25.634 22.2369C25.3933 21.3792 24.7649 20.6538 23.9134 20.251C23.3625 19.9904 23.1532 19.9538 22.3993 19.9856L21.5243 20.0226L20.4899 18.3148C19.7398 17.0762 19.3391 16.5297 19.0316 16.3255C18.5723 16.0207 17.8144 15.9053 17.3179 16.0645ZM18.5718 17.3608C18.703 17.5026 19.4007 18.5984 20.1221 19.7958C20.8434 20.9933 21.7359 22.4629 22.1052 23.0616C25.1421 27.9849 25.934 29.3382 25.9349 29.6062C25.9363 29.9994 25.4226 30.5099 25.0256 30.5099C24.4584 30.5099 24.7182 30.8729 21.3747 25.4107C17.344 18.8261 16.9981 18.2386 16.9981 17.9768C16.9981 17.8284 17.105 17.571 17.2356 17.405C17.5499 17.0053 18.2222 16.9832 18.5718 17.3608ZM28.5735 19.3777C28.3558 19.4945 28.073 19.7303 27.9449 19.9018C27.7249 20.1966 27.7121 20.3768 27.7121 23.1754V26.1371L27.9986 26.4436C28.5553 27.0394 28.7246 27.0722 31.2478 27.0722H33.5918L34.4777 28.0479C34.965 28.5847 35.4908 29.0556 35.6464 29.0947C36.0335 29.1919 36.6863 28.8609 36.8245 28.4977C36.886 28.3358 36.9364 27.9553 36.9364 27.6524V27.1015L37.3867 27.0295C37.673 26.9837 37.986 26.817 38.2461 26.5716L38.6553 26.1858V23.2335C38.6553 20.4735 38.6403 20.257 38.4243 19.9075C37.974 19.1789 37.8802 19.1656 33.1932 19.1656C29.3009 19.1656 28.938 19.1822 28.5735 19.3777ZM17.9984 21.973C18.6888 23.1074 20.035 25.3172 20.99 26.8836C21.945 28.45 22.6977 29.7778 22.6629 29.8342C22.6279 29.8907 22.177 29.9391 21.6608 29.9417C20.2742 29.9489 17.4748 30.3638 15.4233 30.866C14.9038 30.9932 14.4287 31.0663 14.3676 31.0286C14.3064 30.9908 13.682 30.0039 12.9798 28.8356L11.7032 26.7113L11.9251 26.462C12.0472 26.325 12.2887 26.0581 12.4619 25.869C13.4146 24.8286 15.032 22.5939 15.9037 21.1136C16.5629 19.9941 16.6694 19.8298 16.7079 19.8718C16.7273 19.893 17.308 20.8386 17.9984 21.973ZM37.4865 20.449C37.5851 20.5477 37.624 21.3057 37.624 23.1353C37.624 25.6393 37.6195 25.6873 37.3692 25.8625C37.2292 25.9606 36.9771 26.0409 36.809 26.0409C36.2438 26.0409 35.9702 26.3934 35.9056 27.2049L35.8479 27.9316L35.4468 27.4793C35.2262 27.2307 34.8458 26.8052 34.6015 26.534L34.1571 26.0409H31.6727C29.7637 26.0409 29.1391 26.0049 28.976 25.8856C28.7826 25.7444 28.7608 25.5117 28.7317 23.2788C28.7056 21.2802 28.7307 20.7795 28.8674 20.5693L29.0351 20.3115H33.192C36.2724 20.3115 37.3846 20.3471 37.4865 20.449ZM23.7736 21.4047C24.3647 21.784 24.725 22.5691 24.6395 23.2916C24.5796 23.7968 24.3639 24.3239 24.2182 24.3208C24.1861 24.3201 23.7319 23.6158 23.2088 22.7555C22.191 21.0816 22.1695 20.9378 22.9567 21.0703C23.1773 21.1074 23.5449 21.2579 23.7736 21.4047ZM30.5424 22.7408C30.3053 22.9778 30.3802 23.3991 30.6841 23.5375C31.1904 23.7682 31.5311 23.4551 31.3891 22.8895C31.334 22.6701 31.2429 22.6033 30.9986 22.6033C30.8233 22.6033 30.618 22.6651 30.5424 22.7408ZM32.7717 22.8128C32.5287 23.0813 32.5328 23.2106 32.7917 23.4449C33.1879 23.8036 33.728 23.6155 33.728 23.1189C33.728 22.6125 33.1271 22.4201 32.7717 22.8128ZM34.9897 22.83C34.8132 23.1597 34.9472 23.5052 35.2841 23.5898C35.674 23.6877 35.9245 23.4466 35.8824 23.0141C35.8527 22.7094 35.7976 22.6556 35.483 22.6253C35.2078 22.5986 35.0868 22.6489 34.9897 22.83ZM11.3022 28.1894C11.5771 28.6149 12.1524 29.5479 12.5805 30.2628C13.2356 31.3569 13.334 31.5866 13.2018 31.7142C12.85 32.0536 10.9539 33.1596 10.5265 33.2746C9.04291 33.6742 7.52392 32.5928 7.40017 31.0491C7.3525 30.4547 7.58821 29.7095 7.97586 29.2288C8.13147 29.0357 10.5666 27.4324 10.7204 27.4217C10.7655 27.4185 11.0273 27.764 11.3022 28.1894ZM13.8756 34.3609C14.2695 35.026 14.5917 35.6871 14.5917 35.8297C14.5917 36.2127 14.2239 36.4912 13.7753 36.4478C13.4263 36.4141 13.3348 36.3101 12.6347 35.1507L11.8736 33.8902L12.4592 33.5204C12.7812 33.317 13.0706 33.1508 13.1021 33.1511C13.1336 33.1513 13.4817 33.6958 13.8756 34.3609Z" stroke="url(#paint1_linear_2111_279)" stroke-width="0.4" mask="url(#path-1-outside-1_2111_279)"/>
<defs>
<linearGradient id="paint0_linear_2111_279" x1="6.34473" y1="22.9546" x2="38.6553" y2="22.9546" gradientUnits="userSpaceOnUse">
<stop stop-color="#690DFF"/>
<stop offset="1" stop-color="#FF00F5"/>
</linearGradient>
<linearGradient id="paint1_linear_2111_279" x1="6.34473" y1="22.9546" x2="38.6553" y2="22.9546" gradientUnits="userSpaceOnUse">
<stop stop-color="#690DFF"/>
<stop offset="1" stop-color="#FF00F5"/>
</linearGradient>
</defs>
</svg>
